<?xml version="1.0" encoding="UTF-8"?>
<svg id="Layer_3" data-name="Layer 3" xmlns="http://www.w3.org/2000/svg" viewBox="0 0 500 500">
  <defs>
    <style>
      .cls-1 {
        fill: #fff;
      }
    </style>
  </defs>
  <g>
    <polygon class="cls-1" points="104.14 309.14 91.33 310.71 73.46 302.94 50.93 274.21 50.64 274.44 73.22 303.24 73.27 303.26 91.28 311.09 91.33 311.09 104.18 309.51 104.14 309.14"/>
    <polygon class="cls-1" points="48.68 275.42 50.2 275.41 51.07 276.64 51.52 275.2 52.96 274.75 51.73 273.88 51.75 272.37 50.54 273.27 49.11 272.78 49.59 274.21 48.68 275.42"/>
    <polygon class="cls-1" points="89.19 311.74 90.75 311.82 91.56 313.15 92.12 311.7 93.64 311.34 92.43 310.35 92.55 308.8 91.24 309.65 89.8 309.05 90.2 310.55 89.19 311.74"/>
    <polygon class="cls-1" points="101.62 311.35 103.46 310.61 105.11 311.7 104.97 309.72 106.51 308.49 104.59 308.02 103.9 306.17 102.85 307.84 100.88 307.93 102.15 309.45 101.62 311.35"/>
    <polygon class="cls-1" points="70.03 305.56 72.31 304.99 72.64 307.31 73.85 305.3 75.73 306.71 75.16 304.43 77.49 304.1 75.47 302.89 76.88 301.01 74.6 301.58 74.27 299.25 73.06 301.27 71.18 299.86 71.75 302.14 69.43 302.47 71.44 303.68 70.03 305.56"/>
  </g>
  <g>
    <polygon class="cls-1" points="327.61 418.22 327.4 417.89 312.15 427.72 301.84 429.34 284.39 428.05 284.36 428.44 301.86 429.73 312.3 428.1 312.33 428.08 327.61 418.22"/>
    <polygon class="cls-1" points="331.38 441.2 312.34 427.75 312.11 428.07 331.15 441.52 331.38 441.2"/>
    <polygon class="cls-1" points="329.43 441.63 330.56 442.12 330.79 443.33 331.61 442.41 332.83 442.56 332.21 441.5 332.73 440.39 331.53 440.65 330.63 439.81 330.51 441.03 329.43 441.63"/>
    <polygon class="cls-1" points="300.43 430.47 301.65 430.37 302.43 431.32 302.71 430.12 303.86 429.68 302.81 429.04 302.74 427.81 301.81 428.61 300.62 428.3 301.09 429.43 300.43 430.47"/>
    <polygon class="cls-1" points="282.05 428.58 283.51 429.15 283.86 430.66 284.85 429.46 286.4 429.59 285.56 428.28 286.16 426.84 284.66 427.23 283.47 426.22 283.39 427.77 282.05 428.58"/>
    <polygon class="cls-1" points="309.41 429.7 311.23 429.33 311.4 431.18 312.43 429.64 313.86 430.81 313.49 429 315.34 428.82 313.8 427.79 314.98 426.37 313.16 426.73 312.98 424.89 311.96 426.43 310.53 425.25 310.89 427.06 309.05 427.24 310.59 428.27 309.41 429.7"/>
    <polygon class="cls-1" points="325.67 420.34 327.03 419.53 327.7 420.96 328.08 419.42 329.57 419.96 328.75 418.61 330.18 417.93 328.65 417.55 329.18 416.06 327.83 416.88 327.16 415.45 326.78 416.98 325.29 416.45 326.1 417.8 324.67 418.47 326.21 418.86 325.67 420.34"/>
  </g>
  <g>
    <g>
      <polygon class="cls-1" points="159.85 375.53 156.33 377.22 138.93 371.64 129.49 371.56 126.59 375.18 123.51 372.1 120.74 375.81 112.53 379.23 94.17 382.52 94.24 382.91 112.64 379.61 120.99 376.13 123.56 372.71 126.63 375.77 129.68 371.96 138.89 372.04 156.36 377.65 160.02 375.89 159.85 375.53"/>
      <polygon class="cls-1" points="129.71 371.6 126.06 368.78 121.95 367.27 96.21 365.26 96.18 365.65 121.9 367.66 125.9 369.14 129.47 371.91 129.71 371.6"/>
      <polygon class="cls-1" points="128.84 372.93 129.64 372.53 130.42 372.95 130.28 372.08 130.93 371.46 130.05 371.32 129.66 370.52 129.26 371.31 128.38 371.43 129.01 372.06 128.84 372.93"/>
      <polygon class="cls-1" points="125.82 376.76 126.61 376.36 127.39 376.78 127.25 375.9 127.9 375.29 127.02 375.15 126.64 374.35 126.23 375.14 125.35 375.25 125.98 375.88 125.82 376.76"/>
      <polygon class="cls-1" points="155.48 378.52 156.27 378.12 157.05 378.54 156.91 377.66 157.56 377.05 156.68 376.91 156.3 376.11 155.89 376.9 155.01 377.01 155.64 377.64 155.48 378.52"/>
      <polygon class="cls-1" points="119.61 377.52 120.75 376.94 121.87 377.55 121.67 376.29 122.6 375.41 121.34 375.21 120.79 374.05 120.21 375.19 118.94 375.36 119.84 376.26 119.61 377.52"/>
      <polygon class="cls-1" points="122.52 374.14 123.53 373.63 124.52 374.17 124.34 373.06 125.16 372.28 124.05 372.1 123.56 371.09 123.05 372.09 121.93 372.24 122.73 373.04 122.52 374.14"/>
      <polygon class="cls-1" points="91.9 384.77 93.66 384.13 94.12 385.95 94.91 384.25 96.52 385.22 95.88 383.46 97.7 383 96 382.2 96.97 380.59 95.2 381.23 94.75 379.41 93.95 381.11 92.34 380.15 92.98 381.91 91.16 382.37 92.86 383.16 91.9 384.77"/>
      <polygon class="cls-1" points="95.49 367.76 96.43 366.81 97.28 367.84 97.27 366.5 98.61 366.63 97.65 365.69 98.69 364.83 97.35 364.84 97.47 363.51 96.53 364.46 95.68 363.43 95.69 364.77 94.35 364.64 95.31 365.58 94.27 366.44 95.61 366.43 95.49 367.76"/>
      <polygon class="cls-1" points="110.45 380.79 111.73 380.37 112.02 381.67 112.62 380.48 113.75 381.2 113.33 379.93 114.64 379.64 113.44 379.03 114.16 377.9 112.89 378.33 112.6 377.02 112 378.21 110.87 377.49 111.29 378.77 109.98 379.05 111.17 379.66 110.45 380.79"/>
      <polygon class="cls-1" points="137.7 374.32 138.95 373.37 139.77 374.72 139.98 373.16 141.51 373.54 140.57 372.28 141.91 371.47 140.35 371.25 140.73 369.72 139.48 370.67 138.66 369.32 138.44 370.88 136.92 370.5 137.86 371.76 136.52 372.57 138.07 372.79 137.7 374.32"/>
      <polygon class="cls-1" points="159.41 377.41 160.62 376.39 162.14 376.82 161.55 375.35 162.42 374.03 160.85 374.14 159.86 372.91 159.48 374.44 158 374.99 159.34 375.83 159.41 377.41"/>
    </g>
    <polygon class="cls-1" points="120.82 368.7 121.88 368.31 122.8 368.96 122.76 367.84 123.67 367.16 122.58 366.85 122.22 365.78 121.59 366.72 120.46 366.74 121.16 367.62 120.82 368.7"/>
    <polygon class="cls-1" points="125.29 370.31 126.08 369.91 126.86 370.33 126.72 369.45 127.37 368.84 126.49 368.7 126.11 367.9 125.7 368.69 124.82 368.8 125.45 369.43 125.29 370.31"/>
  </g>
  <g>
    <polygon class="cls-1" points="222.45 442.05 210.77 439.19 197.19 431.93 191.72 427.61 189.39 424.28 189.12 424.47 191.5 427.85 197.01 432.21 210.65 439.49 222.37 442.37 222.45 442.05"/>
    <polygon class="cls-1" points="218.98 446.22 218.95 446.19 210.84 439.22 210.62 439.47 218.7 446.41 220.17 450.19 219.57 454.57 219.9 454.61 220.49 450.11 218.98 446.22"/>
    <polygon class="cls-1" points="201 413.79 200.7 413.66 198.28 419.2 198.29 419.24 199.05 424.8 196.95 432.03 192.93 441.96 193.24 442.08 197.26 432.14 199.39 424.79 198.62 419.24 201 413.79"/>
    <polygon class="cls-1" points="228.21 435.53 215.71 427.24 210.37 421.61 198.51 419.06 194.48 416.75 194.32 417.04 198.42 419.38 210.21 421.91 215.5 427.49 228.02 435.8 228.21 435.53"/>
    <polygon class="cls-1" points="233.91 428.77 220.17 417.88 210.23 421.6 210.35 421.91 220.11 418.26 233.7 429.03 233.91 428.77"/>
    <polygon class="cls-1" points="197.49 419.78 198.23 419.72 198.7 420.3 198.87 419.57 199.57 419.3 198.93 418.91 198.89 418.17 198.32 418.66 197.6 418.46 197.89 419.15 197.49 419.78"/>
    <polygon class="cls-1" points="198.14 425.18 198.98 425.12 199.51 425.77 199.7 424.95 200.48 424.65 199.77 424.21 199.72 423.38 199.08 423.92 198.27 423.71 198.6 424.48 198.14 425.18"/>
    <polygon class="cls-1" points="190.59 428.2 191.35 428.13 191.84 428.73 192.01 427.98 192.73 427.7 192.07 427.3 192.03 426.54 191.45 427.04 190.71 426.84 191 427.55 190.59 428.2"/>
    <polygon class="cls-1" points="196.11 432.55 196.88 432.49 197.36 433.09 197.54 432.34 198.26 432.06 197.6 431.66 197.56 430.89 196.98 431.39 196.23 431.2 196.53 431.91 196.11 432.55"/>
    <polygon class="cls-1" points="214.48 428.08 215.35 428.01 215.9 428.69 216.11 427.84 216.92 427.52 216.17 427.07 216.13 426.19 215.46 426.76 214.61 426.54 214.95 427.35 214.48 428.08"/>
    <polygon class="cls-1" points="209.54 440.17 210.48 440.09 211.08 440.82 211.3 439.9 212.18 439.56 211.37 439.07 211.32 438.12 210.6 438.74 209.69 438.5 210.05 439.37 209.54 440.17"/>
    <polygon class="cls-1" points="221.2 442.81 222.07 442.74 222.63 443.42 222.83 442.57 223.65 442.25 222.9 441.79 222.85 440.92 222.19 441.49 221.34 441.26 221.68 442.07 221.2 442.81"/>
    <polygon class="cls-1" points="217.59 447 218.57 446.92 219.18 447.68 219.41 446.73 220.32 446.38 219.49 445.87 219.43 444.89 218.69 445.53 217.74 445.28 218.12 446.18 217.59 447"/>
    <polygon class="cls-1" points="219.25 450.76 220.09 450.69 220.62 451.35 220.81 450.53 221.59 450.22 220.88 449.79 220.83 448.95 220.19 449.5 219.38 449.28 219.7 450.06 219.25 450.76"/>
    <polygon class="cls-1" points="218.48 455.28 219.46 455.2 220.08 455.96 220.3 455 221.22 454.65 220.38 454.14 220.33 453.16 219.58 453.8 218.64 453.55 219.01 454.45 218.48 455.28"/>
    <polygon class="cls-1" points="219.01 418.8 219.85 418.73 220.39 419.39 220.58 418.56 221.38 418.26 220.65 417.82 220.6 416.97 219.96 417.52 219.14 417.3 219.47 418.09 219.01 418.8"/>
    <polygon class="cls-1" points="232.77 429.58 233.53 429.51 234.02 430.11 234.2 429.36 234.91 429.09 234.26 428.69 234.21 427.92 233.63 428.42 232.89 428.22 233.18 428.93 232.77 429.58"/>
    <polygon class="cls-1" points="192.14 442.58 192.91 442.51 193.39 443.11 193.57 442.36 194.29 442.09 193.63 441.69 193.59 440.92 193 441.42 192.26 441.22 192.56 441.93 192.14 442.58"/>
    <polygon class="cls-1" points="199.66 414.55 200.6 414.47 201.2 415.21 201.42 414.29 202.31 413.94 201.5 413.45 201.45 412.5 200.73 413.12 199.81 412.88 200.17 413.75 199.66 414.55"/>
    <polygon class="cls-1" points="208.82 422.51 209.92 422.42 210.61 423.27 210.86 422.21 211.89 421.81 210.95 421.24 210.89 420.15 210.06 420.86 209 420.58 209.42 421.59 208.82 422.51"/>
    <polygon class="cls-1" points="226.78 436.44 227.86 436.36 228.54 437.2 228.79 436.14 229.8 435.75 228.88 435.19 228.82 434.11 228 434.81 226.95 434.54 227.37 435.54 226.78 436.44"/>
    <polygon class="cls-1" points="192.58 418.28 193.8 418.04 193.92 419.28 194.61 418.24 195.58 419.04 195.33 417.81 196.57 417.69 195.53 417 196.33 416.04 195.11 416.28 194.99 415.04 194.29 416.08 193.33 415.28 193.58 416.51 192.33 416.63 193.37 417.32 192.58 418.28"/>
    <polygon class="cls-1" points="188.09 425.53 188.98 425.36 189.07 426.26 189.57 425.5 190.28 426.08 190.1 425.19 191 425.1 190.25 424.6 190.82 423.9 189.93 424.08 189.85 423.17 189.34 423.93 188.64 423.35 188.82 424.24 187.91 424.33 188.67 424.83 188.09 425.53"/>
  </g>
  <g>
    <path class="cls-1" d="M404.05,393.69l-8.16-3.43-6.13,4.42-1.62,11.62,6.79.8-.05.41-7.21-.85,1.69-12.12v-.09s6.23-4.48,6.23-4.48l-13.16-22.17-.04-.06,3.3-21.23,6.64,16.12,21.14,25.71-9.43,5.36ZM385.87,348.02l-3.05,19.63,13.19,22.21,8.02,3.37,8.82-5.02s-20.85-25.36-20.87-25.38l-6.11-14.81Z"/>
    <polygon class="cls-1" points="392.47 408.72 394.3 408.61 395.42 410.05 395.88 408.28 397.6 407.66 396.06 406.67 396 404.85 394.59 406.01 392.83 405.5 393.5 407.2 392.47 408.72"/>
    <polygon class="cls-1" points="383.7 350.41 385.35 349.36 386.23 351.11 386.65 349.2 388.51 349.81 387.45 348.16 389.2 347.29 387.29 346.87 387.9 345.01 386.26 346.06 385.38 344.32 384.96 346.23 383.1 345.61 384.15 347.26 382.41 348.14 384.32 348.56 383.7 350.41"/>
    <polygon class="cls-1" points="392.63 390.07 394.16 391.07 394.21 392.9 395.63 391.75 397.38 392.27 396.73 390.56 397.76 389.05 395.94 389.15 394.82 387.7 394.35 389.46 392.63 390.07"/>
    <polygon class="cls-1" points="410.17 390.45 411.95 389.78 412.43 391.61 413.21 389.88 414.85 390.83 414.18 389.06 416.01 388.57 414.28 387.79 415.23 386.15 413.46 386.82 412.97 384.99 412.19 386.72 410.55 385.77 411.23 387.54 409.39 388.03 411.12 388.81 410.17 390.45"/>
    <polygon class="cls-1" points="390.18 364.09 391.62 364.04 392.49 365.19 392.88 363.81 394.25 363.34 393.05 362.54 393.03 361.1 391.9 361.99 390.52 361.56 391.02 362.91 390.18 364.09"/>
    <polygon class="cls-1" points="380.48 368.33 381.96 368.71 382.49 370.14 383.31 368.85 384.83 368.78 383.86 367.61 384.27 366.14 382.85 366.7 381.58 365.86 381.68 367.38 380.48 368.33"/>
    <polygon class="cls-1" points="401.74 393.84 403.16 394.2 403.67 395.57 404.45 394.33 405.91 394.27 404.98 393.14 405.37 391.73 404.01 392.28 402.79 391.46 402.89 392.93 401.74 393.84"/>
    <polygon class="cls-1" points="388.29 395.34 389.35 395.2 390.07 395.99 390.26 394.94 391.24 394.5 390.3 394 390.18 392.93 389.41 393.67 388.36 393.45 388.83 394.42 388.29 395.34"/>
    <polygon class="cls-1" points="385.82 406.96 387.22 407.31 387.72 408.67 388.49 407.45 389.93 407.39 389.01 406.28 389.4 404.89 388.06 405.43 386.86 404.63 386.95 406.07 385.82 406.96"/>
  </g>
  <g>
    <polygon class="cls-1" points="394.45 134.95 388.82 137.96 382.84 140.54 375.52 141.64 375.58 142.03 382.97 140.92 388.99 138.32 394.63 135.3 394.45 134.95"/>
    <path class="cls-1" d="M394.64,92.85s-5.2-7.48-5.2-7.48l-7.49-.23-2.71,4.14v6.77s.41,0,.41,0v-6.65s2.51-3.85,2.51-3.85l7.07.21,5.05,7.26,2.22,7.23-4.9,5.46-5.93,3.97-4.16,10.1-2.47,5.52,1.18,5.37,2.47,10.1.39-.09-2.47-10.1-1.16-5.23,2.42-5.41,4.11-10,5.86-3.93,5.08-5.66-2.3-7.5Z"/>
    <polygon class="cls-1" points="390.26 106.8 391.19 106.64 391.85 107.32 391.99 106.38 392.84 105.96 391.99 105.54 391.85 104.6 391.19 105.28 390.26 105.12 390.7 105.96 390.26 106.8"/>
    <polygon class="cls-1" points="394.7 101.09 395.96 101.27 396.52 102.41 397.09 101.27 398.35 101.09 397.44 100.2 397.65 98.94 396.52 99.53 395.39 98.94 395.61 100.2 394.7 101.09"/>
    <polygon class="cls-1" points="380.83 86.37 381.77 86.3 382.37 87.03 382.59 86.11 383.48 85.77 382.67 85.28 382.61 84.33 381.9 84.95 380.98 84.7 381.34 85.58 380.83 86.37"/>
    <polygon class="cls-1" points="378.35 91.16 379.2 90.73 380.03 91.18 379.88 90.25 380.57 89.59 379.63 89.45 379.23 88.59 378.8 89.43 377.86 89.56 378.52 90.23 378.35 91.16"/>
    <polygon class="cls-1" points="378.32 96.8 379.27 96.73 379.87 97.46 380.08 96.54 380.97 96.2 380.16 95.71 380.11 94.76 379.39 95.38 378.47 95.13 378.84 96.01 378.32 96.8"/>
    <polygon class="cls-1" points="393.04 93.9 393.98 93.83 394.58 94.56 394.8 93.64 395.68 93.3 394.87 92.8 394.82 91.86 394.1 92.48 393.19 92.23 393.55 93.11 393.04 93.9"/>
    <polygon class="cls-1" points="379.12 131.19 380.07 131.12 380.66 131.85 380.88 130.93 381.77 130.59 380.96 130.09 380.91 129.15 380.19 129.77 379.27 129.52 379.64 130.4 379.12 131.19"/>
    <polygon class="cls-1" points="380.41 120.92 381.35 120.85 381.95 121.58 382.17 120.66 383.05 120.32 382.24 119.83 382.19 118.88 381.47 119.5 380.56 119.25 380.92 120.13 380.41 120.92"/>
    <polygon class="cls-1" points="387.71 138.63 388.66 138.68 389.16 139.48 389.5 138.6 390.41 138.37 389.68 137.78 389.74 136.83 388.95 137.35 388.07 137 388.33 137.91 387.71 138.63"/>
    <polygon class="cls-1" points="393.1 135.94 394.27 135.84 395.02 136.76 395.29 135.61 396.39 135.19 395.38 134.57 395.32 133.4 394.42 134.16 393.28 133.86 393.74 134.95 393.1 135.94"/>
    <polygon class="cls-1" points="373.15 142.48 374.44 142.77 374.94 144 375.61 142.86 376.94 142.77 376.06 141.78 376.39 140.49 375.17 141.01 374.05 140.31 374.17 141.63 373.15 142.48"/>
    <polygon class="cls-1" points="377.4 126.73 379.05 126.59 380.09 127.88 380.47 126.27 382.02 125.67 380.6 124.81 380.51 123.16 379.26 124.23 377.66 123.81 378.29 125.34 377.4 126.73"/>
    <polygon class="cls-1" points="383.77 111.66 385.19 111.29 385.41 112.73 386.15 111.47 387.33 112.33 386.96 110.92 388.41 110.69 387.14 109.95 388.01 108.77 386.59 109.14 386.37 107.7 385.63 108.96 384.45 108.1 384.82 109.51 383.37 109.74 384.63 110.48 383.77 111.66"/>
    <polygon class="cls-1" points="387.11 87.7 388.47 87.21 388.82 88.62 389.44 87.31 390.68 88.07 390.19 86.7 391.6 86.36 390.29 85.73 391.04 84.5 389.68 84.98 389.33 83.57 388.71 84.88 387.47 84.13 387.96 85.49 386.55 85.84 387.86 86.46 387.11 87.7"/>
    <polygon class="cls-1" points="379.66 142.45 381.62 142.06 381.81 144.05 382.92 142.38 384.46 143.66 384.07 141.7 386.06 141.51 384.39 140.4 385.67 138.86 383.71 139.25 383.52 137.26 382.41 138.92 380.87 137.65 381.26 139.61 379.27 139.8 380.93 140.91 379.66 142.45"/>
  </g>
  <g>
    <rect class="cls-1" x="311.49" y="46.84" width=".38" height="10.78" transform="translate(-3.58 30.26) rotate(-5.53)"/>
    <polygon class="cls-1" points="319.78 56.55 311.23 46.65 301.72 48.67 288.04 49.91 287.2 53.41 285.82 61.44 293.09 69.07 293.37 68.81 286.23 61.31 287.57 53.49 288.35 50.26 301.78 49.05 311.09 47.07 319.5 56.8 319.78 56.55"/>
    <polygon class="cls-1" points="292.48 74.07 284.46 73.16 281.97 71.77 278.3 69.68 278.11 70.01 281.78 72.1 284.38 73.54 292.44 74.44 292.48 74.07"/>
    <polygon class="cls-1" points="297.86 69.54 293.26 68.75 293.2 69.13 297.39 69.85 295.23 77.64 295.45 85.18 291.27 95.37 291.62 95.51 295.83 85.2 295.61 77.66 297.86 69.54"/>
    <polygon class="cls-1" points="307.38 89 302.22 83.82 295.6 85.02 295.67 85.4 302.09 84.23 306.99 89.14 306.38 96.04 306.76 96.08 307.38 89"/>
    <polygon class="cls-1" points="314.55 80.32 309.13 78.72 302.04 83.87 302.27 84.18 309.21 79.14 314.45 80.68 314.55 80.32"/>
    <polygon class="cls-1" points="293.42 68.97 293.04 68.91 292.26 74.31 295.27 77.76 295.56 77.51 292.66 74.2 293.42 68.97"/>
    <polygon class="cls-1" points="284.59 73.36 284.21 73.33 283.91 76.75 284.29 76.78 284.59 73.36"/>
    <polygon class="cls-1" points="283.85 62.46 285.46 61.95 285.81 63.6 286.58 62.1 288 63.02 287.48 61.41 289.14 61.07 287.63 60.29 288.56 58.88 286.95 59.39 286.6 57.74 285.83 59.24 284.41 58.32 284.93 59.93 283.27 60.27 284.77 61.05 283.85 62.46"/>
    <polygon class="cls-1" points="308.73 48.77 310.34 48.25 310.68 49.91 311.46 48.41 312.87 49.33 312.36 47.72 314.01 47.37 312.51 46.6 313.43 45.18 311.82 45.7 311.48 44.04 310.7 45.55 309.29 44.62 309.8 46.23 308.15 46.58 309.65 47.35 308.73 48.77"/>
    <polygon class="cls-1" points="290.33 97.07 291.46 96.34 292.7 96.85 292.35 95.55 293.22 94.53 291.88 94.46 291.17 93.32 290.69 94.57 289.39 94.89 290.43 95.73 290.33 97.07"/>
    <polygon class="cls-1" points="308.17 80.65 309.31 80.04 310.45 80.64 310.23 79.37 311.15 78.46 309.87 78.28 309.3 77.13 308.73 78.29 307.46 78.48 308.38 79.37 308.17 80.65"/>
    <polygon class="cls-1" points="317.87 57.83 319.28 57.56 320.3 58.56 320.47 57.14 321.74 56.48 320.45 55.88 320.21 54.46 319.23 55.51 317.82 55.3 318.51 56.55 317.87 57.83"/>
    <polygon class="cls-1" points="300.01 50.13 301.39 49.86 302.39 50.84 302.56 49.45 303.8 48.8 302.53 48.21 302.3 46.83 301.34 47.86 299.95 47.65 300.63 48.88 300.01 50.13"/>
    <polygon class="cls-1" points="305.64 90.46 306.76 90.07 307.71 90.76 307.68 89.58 308.64 88.88 307.5 88.55 307.14 87.42 306.47 88.4 305.29 88.4 306.01 89.33 305.64 90.46"/>
    <polygon class="cls-1" points="310.74 58.34 311.83 58.36 312.43 59.27 312.79 58.24 313.84 57.94 312.97 57.29 313.01 56.2 312.12 56.82 311.1 56.44 311.42 57.49 310.74 58.34"/>
    <polygon class="cls-1" points="286.97 50.61 287.74 50.63 288.17 51.27 288.42 50.54 289.16 50.33 288.54 49.87 288.57 49.1 287.94 49.54 287.22 49.28 287.45 50.01 286.97 50.61"/>
    <polygon class="cls-1" points="286.24 53.93 287.01 53.94 287.43 54.58 287.68 53.85 288.43 53.65 287.81 53.18 287.84 52.41 287.21 52.86 286.49 52.59 286.72 53.32 286.24 53.93"/>
    <polygon class="cls-1" points="292.11 69.36 292.88 69.37 293.31 70.01 293.56 69.29 294.3 69.08 293.68 68.62 293.72 67.85 293.09 68.29 292.37 68.02 292.59 68.76 292.11 69.36"/>
    <polygon class="cls-1" points="283.34 73.79 284.11 73.8 284.54 74.44 284.79 73.72 285.53 73.51 284.91 73.05 284.95 72.28 284.32 72.72 283.59 72.45 283.82 73.19 283.34 73.79"/>
    <polygon class="cls-1" points="280.81 72.44 281.58 72.45 282 73.09 282.25 72.36 283 72.16 282.38 71.69 282.41 70.92 281.78 71.37 281.06 71.1 281.29 71.83 280.81 72.44"/>
    <polygon class="cls-1" points="277.14 70.25 277.91 70.26 278.34 70.9 278.59 70.18 279.33 69.97 278.71 69.51 278.74 68.74 278.11 69.18 277.39 68.91 277.62 69.65 277.14 70.25"/>
    <polygon class="cls-1" points="283.05 77.38 283.82 77.39 284.24 78.03 284.49 77.31 285.23 77.1 284.62 76.64 284.65 75.87 284.02 76.31 283.3 76.04 283.53 76.78 283.05 77.38"/>
    <polygon class="cls-1" points="296.4 70.22 297.17 70.24 297.6 70.88 297.85 70.15 298.59 69.94 297.97 69.48 298.01 68.71 297.38 69.15 296.66 68.89 296.88 69.62 296.4 70.22"/>
    <polygon class="cls-1" points="294.22 78.18 294.99 78.25 295.37 78.92 295.67 78.21 296.42 78.06 295.84 77.55 295.93 76.79 295.27 77.18 294.57 76.86 294.74 77.61 294.22 78.18"/>
    <polygon class="cls-1" points="305.34 96.19 306.08 96.42 306.32 97.15 306.75 96.51 307.52 96.52 307.06 95.9 307.3 95.17 306.57 95.43 305.95 94.97 305.97 95.74 305.34 96.19"/>
    <polygon class="cls-1" points="301.18 84.62 301.94 84.54 302.44 85.13 302.6 84.38 303.32 84.09 302.65 83.7 302.6 82.93 302.02 83.45 301.27 83.26 301.58 83.97 301.18 84.62"/>
    <polygon class="cls-1" points="313.23 81 314.14 81.01 314.64 81.77 314.94 80.91 315.82 80.67 315.09 80.12 315.13 79.21 314.38 79.73 313.53 79.41 313.79 80.28 313.23 81"/>
    <polygon class="cls-1" points="294.67 85.69 295.44 85.7 295.86 86.34 296.11 85.61 296.85 85.4 296.24 84.94 296.27 84.17 295.64 84.62 294.92 84.35 295.14 85.08 294.67 85.69"/>
    <polygon class="cls-1" points="290.91 75.16 292.32 75.18 293.1 76.35 293.56 75.02 294.92 74.64 293.79 73.8 293.85 72.39 292.7 73.2 291.38 72.71 291.79 74.05 290.91 75.16"/>
  </g>
  <g>
    <path class="cls-1" d="M220.34,54.69l3.78,7.52,1.99,10.03,2.31,8.39-4.45,2.05-26.03,9.82-5.23,2.16-.14-.33,5.18-2.14,13.53-23.9,1.13-8.82,2.14-8.02v-.06s4.47-3.64,4.47-3.64l1.33,6.93ZM212.76,59.54l-1.13,8.83-13.36,23.62,25.56-9.64,4.16-1.92-2.23-8.11-1.97-9.97-3.78-7.52-1.23-6.41-3.9,3.18-2.12,7.94Z"/>
    <polygon class="cls-1" points="190.24 94.76 191.58 95.08 191.13 96.39 192.31 95.66 192.91 96.91 193.23 95.56 194.54 96.02 193.81 94.84 195.06 94.24 193.71 93.92 194.17 92.61 192.99 93.33 192.39 92.09 192.07 93.43 190.76 92.98 191.48 94.16 190.24 94.76"/>
    <polygon class="cls-1" points="224.95 81.32 226.66 81.37 226.44 83.07 227.69 81.9 228.73 83.26 228.78 81.55 230.48 81.77 229.31 80.52 230.67 79.48 228.95 79.43 229.18 77.73 227.93 78.9 226.89 77.54 226.84 79.25 225.14 79.03 226.31 80.28 224.95 81.32"/>
    <polygon class="cls-1" points="215.31 48.45 217.2 48.9 216.56 50.73 218.21 49.71 219.05 51.46 219.5 49.57 221.33 50.21 220.31 48.56 222.06 47.72 220.18 47.27 220.81 45.44 219.16 46.46 218.32 44.71 217.87 46.6 216.04 45.96 217.06 47.61 215.31 48.45"/>
    <polygon class="cls-1" points="197.45 90.55 197.71 91.82 196.82 92.76 198.1 92.9 198.72 94.05 199.25 92.86 200.53 92.64 199.57 91.76 199.75 90.48 198.62 91.12 197.45 90.55"/>
    <polygon class="cls-1" points="209.96 67.64 210.57 68.33 210.35 69.22 211.19 68.85 211.97 69.33 211.88 68.42 212.58 67.83 211.68 67.63 211.34 66.78 210.87 67.57 209.96 67.64"/>
    <polygon class="cls-1" points="225.1 62.66 224.39 62.07 224.47 61.16 223.7 61.65 222.85 61.29 223.08 62.18 222.47 62.87 223.39 62.93 223.86 63.72 224.2 62.86 225.1 62.66"/>
    <polygon class="cls-1" points="219.13 54.16 219.74 54.85 219.52 55.74 220.37 55.37 221.15 55.85 221.06 54.94 221.76 54.35 220.86 54.15 220.51 53.3 220.05 54.09 219.13 54.16"/>
    <polygon class="cls-1" points="212.84 51.8 213.45 52.49 213.23 53.38 214.08 53.01 214.86 53.49 214.77 52.58 215.47 51.99 214.57 51.79 214.23 50.94 213.76 51.73 212.84 51.8"/>
    <polygon class="cls-1" points="224.82 71.66 225.43 72.35 225.21 73.24 226.05 72.87 226.83 73.36 226.74 72.44 227.44 71.85 226.54 71.65 226.2 70.8 225.73 71.59 224.82 71.66"/>
    <polygon class="cls-1" points="221.78 82.56 222.47 83.17 222.35 84.08 223.15 83.62 223.98 84.01 223.78 83.11 224.41 82.44 223.5 82.35 223.05 81.55 222.68 82.39 221.78 82.56"/>
    <polygon class="cls-1" points="210.09 58.92 211.37 59.94 211.26 61.57 212.62 60.67 214.14 61.28 213.7 59.71 214.75 58.45 213.12 58.38 212.25 56.99 211.68 58.53 210.09 58.92"/>
  </g>
  <g>
    <polygon class="cls-1" points="123.84 110.86 111.3 104.31 111.67 122.56 108.58 144.06 109.01 144.12 112.1 122.59 111.75 105.04 123.5 111.17 128.23 121.85 128.63 121.67 123.84 110.86"/>
    <polygon class="cls-1" points="142.3 92.29 120.55 91.43 117.3 94.47 117.74 100.03 111.4 104.5 111.65 104.85 118.2 100.24 117.75 94.65 120.71 91.88 141.41 92.69 135.69 99.65 139.48 108.83 144.03 109.25 152.55 113.01 152.73 112.61 144.11 108.82 139.78 108.41 136.19 99.72 142.3 92.29"/>
    <polygon class="cls-1" points="108.46 106.38 110.39 106.18 110.4 108.12 111.62 106.61 112.99 107.98 112.79 106.05 114.73 106.04 113.22 104.82 114.59 103.44 112.66 103.65 112.65 101.71 111.43 103.22 110.06 101.85 110.26 103.78 108.32 103.79 109.83 105.01 108.46 106.38"/>
    <polygon class="cls-1" points="150.38 115.01 152.06 114.26 152.64 116.01 153.29 114.28 154.94 115.11 154.19 113.43 155.94 112.85 154.21 112.19 155.04 110.54 153.36 111.3 152.78 109.55 152.12 111.27 150.47 110.45 151.23 112.13 149.48 112.71 151.2 113.36 150.38 115.01"/>
    <polygon class="cls-1" points="106.35 144.03 107.96 144.59 108.41 146.23 109.44 144.87 111.14 144.94 110.16 143.55 110.76 141.95 109.13 142.45 107.8 141.39 107.77 143.09 106.35 144.03"/>
    <polygon class="cls-1" points="110.1 123.31 111.5 123.36 112.25 124.54 112.73 123.22 114.08 122.87 112.98 122.01 113.06 120.62 111.9 121.4 110.6 120.89 110.99 122.23 110.1 123.31"/>
    <polygon class="cls-1" points="122.09 111.04 122.97 111.53 123.07 112.54 123.81 111.85 124.81 112.06 124.38 111.14 124.89 110.27 123.88 110.39 123.21 109.63 123.02 110.63 122.09 111.04"/>
    <polygon class="cls-1" points="127.33 121.1 127.88 121.95 127.49 122.89 128.47 122.63 129.24 123.29 129.3 122.28 130.17 121.75 129.22 121.39 128.99 120.4 128.35 121.18 127.33 121.1"/>
    <polygon class="cls-1" points="116.26 94.6 117.15 95.09 117.25 96.1 117.99 95.41 118.98 95.62 118.55 94.7 119.07 93.83 118.06 93.95 117.38 93.2 117.19 94.19 116.26 94.6"/>
    <polygon class="cls-1" points="115.6 100.17 116.74 100.79 116.87 102.09 117.82 101.2 119.09 101.48 118.54 100.3 119.2 99.18 117.9 99.34 117.04 98.37 116.79 99.64 115.6 100.17"/>
    <polygon class="cls-1" points="142.37 109.2 143.26 109.69 143.36 110.7 144.1 110.01 145.09 110.23 144.66 109.31 145.18 108.43 144.17 108.56 143.49 107.8 143.3 108.79 142.37 109.2"/>
    <polygon class="cls-1" points="118.9 91.67 119.98 92.27 120.1 93.5 121.01 92.65 122.23 92.92 121.7 91.8 122.33 90.72 121.09 90.88 120.27 89.95 120.03 91.17 118.9 91.67"/>
    <polygon class="cls-1" points="139.85 92.73 140.73 93.22 140.83 94.23 141.58 93.54 142.57 93.75 142.14 92.83 142.65 91.96 141.64 92.08 140.97 91.33 140.78 92.32 139.85 92.73"/>
    <polygon class="cls-1" points="134.07 99.92 135.31 100.6 135.44 102.01 136.48 101.04 137.86 101.35 137.26 100.07 137.98 98.84 136.57 99.02 135.63 97.96 135.36 99.35 134.07 99.92"/>
    <polygon class="cls-1" points="138.13 107.92 138.92 108.75 138.68 109.87 139.71 109.38 140.7 109.95 140.55 108.82 141.4 108.06 140.28 107.84 139.82 106.8 139.27 107.8 138.13 107.92"/>
  </g>
  <g>
    <path class="cls-1" d="M95.66,219.9l-7.89-1.05-1.21-6.34-8.81-10.43-4.93-9.17-5.32-6.26-6.06-9.23-1.75,13.2-3.42,9.26-5.98,8.4-6.68,7.12v-6.84s6.42-.6,6.42-.6l5.87-8.24,3.4-9.2,1.88-14.21,6.63,10.1,5.32,6.28,4.93,9.17,8.71,10.32,5.08-2.62,4.22,4.38-.44,5.96ZM86.96,212.54l1.14,5.96,7.19.96.39-5.37-3.89-4.04-4.83,2.49ZM44.01,214.41l5.64-6.01-5.64.53v5.48Z"/>
    <polygon class="cls-1" points="66.59 188.01 67.72 187.62 68.68 188.33 68.66 187.13 69.63 186.44 68.48 186.09 68.12 184.95 67.44 185.93 66.24 185.92 66.96 186.88 66.59 188.01"/>
    <polygon class="cls-1" points="93.36 221.69 94.81 220.93 95.41 222.46 95.91 220.9 97.41 221.55 96.65 220.1 98.18 219.49 96.62 219 97.27 217.5 95.81 218.25 95.21 216.73 94.72 218.29 93.22 217.64 93.97 219.09 92.45 219.69 94.01 220.19 93.36 221.69"/>
    <polygon class="cls-1" points="59.12 179.52 60.83 178.64 61.54 180.42 62.12 178.59 63.88 179.36 63 177.65 64.78 176.94 62.95 176.36 63.72 174.6 62.01 175.48 61.3 173.7 60.72 175.53 58.96 174.77 59.84 176.47 58.06 177.18 59.89 177.76 59.12 179.52"/>
    <polygon class="cls-1" points="75.98 203.72 77.5 203.3 78.7 204.32 78.77 202.74 80.11 201.91 78.64 201.35 78.26 199.82 77.28 201.05 75.7 200.94 76.57 202.26 75.98 203.72"/>
    <polygon class="cls-1" points="89.98 209.96 91.26 210.47 91.56 211.82 92.44 210.76 93.82 210.88 93.08 209.72 93.62 208.45 92.29 208.79 91.25 207.88 91.16 209.26 89.98 209.96"/>
    <polygon class="cls-1" points="41.66 209.54 43.24 209.74 43.96 211.17 44.65 209.73 46.23 209.48 45.07 208.38 45.32 206.8 43.92 207.56 42.49 206.84 42.78 208.41 41.66 209.54"/>
    <polygon class="cls-1" points="73.33 194.43 73.48 193.51 74.33 193.12 73.5 192.69 73.38 191.76 72.72 192.42 71.8 192.24 72.22 193.08 71.77 193.89 72.69 193.75 73.33 194.43"/>
    <polygon class="cls-1" points="58.36 191.38 59.27 191.19 59.94 191.83 60.04 190.9 60.87 190.46 60.01 190.08 59.85 189.16 59.22 189.85 58.29 189.73 58.76 190.54 58.36 191.38"/>
    <polygon class="cls-1" points="54.14 199.49 55.19 200.15 55.24 201.4 56.2 200.6 57.4 200.94 56.94 199.78 57.63 198.75 56.39 198.83 55.62 197.85 55.31 199.06 54.14 199.49"/>
    <polygon class="cls-1" points="85.52 213.02 86.45 213.1 86.92 213.91 87.28 213.05 88.19 212.86 87.48 212.25 87.58 211.32 86.79 211.81 85.93 211.42 86.15 212.33 85.52 213.02"/>
    <polygon class="cls-1" points="85.98 219.27 87.29 219.44 87.89 220.62 88.46 219.43 89.77 219.22 88.81 218.31 89.02 217 87.85 217.63 86.67 217.03 86.91 218.33 85.98 219.27"/>
    <polygon class="cls-1" points="94.48 214.54 95.41 214.58 95.9 215.37 96.23 214.5 97.14 214.27 96.41 213.69 96.47 212.76 95.69 213.27 94.83 212.92 95.08 213.82 94.48 214.54"/>
    <polygon class="cls-1" points="48.76 208.64 49.68 208.77 50.11 209.6 50.51 208.76 51.43 208.61 50.75 207.97 50.9 207.04 50.08 207.49 49.25 207.07 49.42 207.98 48.76 208.64"/>
    <polygon class="cls-1" points="42.3 215.1 43.14 215.51 43.27 216.44 43.92 215.77 44.84 215.93 44.41 215.1 44.85 214.28 43.93 214.43 43.28 213.76 43.14 214.69 42.3 215.1"/>
  </g>
  <g>
    <polygon class="cls-1" points="447.63 312.7 439.99 312.38 431.64 316.25 431.79 316.59 440.11 312.73 447.37 313.06 449.89 320 451.29 330.66 451.66 330.61 450.24 319.91 447.63 312.7"/>
    <polygon class="cls-1" points="448.85 293.4 448.74 293.33 433.95 283.93 427.88 277.69 427.61 277.95 433.72 284.21 448.42 293.57 446.26 301.65 447.32 312.9 447.69 312.86 446.63 301.65 448.85 293.4"/>
    <polygon class="cls-1" points="437.5 299.38 429.81 293.82 420.4 283.62 420.13 283.87 429.57 294.1 437.16 299.59 439.89 312.58 440.25 312.51 437.5 299.38"/>
    <rect class="cls-1" x="436.58" y="296.3" width="12.8" height=".37" transform="translate(-87.3 242.32) rotate(-27.96)"/>
    <polygon class="cls-1" points="429.24 295.42 430.04 294.76 431.04 295.04 430.65 294.07 431.23 293.2 430.19 293.27 429.54 292.46 429.29 293.47 428.31 293.83 429.19 294.38 429.24 295.42"/>
    <polygon class="cls-1" points="450.73 332.17 451.58 331.46 452.64 331.76 452.23 330.74 452.84 329.82 451.74 329.89 451.06 329.03 450.79 330.1 449.76 330.48 450.69 331.07 450.73 332.17"/>
    <polygon class="cls-1" points="433.25 285.83 434.11 285.11 435.19 285.41 434.77 284.38 435.39 283.45 434.28 283.52 433.58 282.65 433.31 283.73 432.26 284.12 433.21 284.71 433.25 285.83"/>
    <polygon class="cls-1" points="445.9 302.98 446.55 302.45 447.35 302.67 447.04 301.89 447.5 301.2 446.67 301.25 446.15 300.6 445.95 301.41 445.16 301.7 445.87 302.15 445.9 302.98"/>
    <polygon class="cls-1" points="430.95 317.87 431.84 317.13 432.95 317.44 432.52 316.36 433.16 315.4 432.01 315.48 431.29 314.57 431.01 315.69 429.92 316.1 430.9 316.71 430.95 317.87"/>
    <polygon class="cls-1" points="439.23 314.7 440.37 313.74 441.82 314.14 441.26 312.75 442.09 311.51 440.6 311.61 439.67 310.43 439.3 311.89 437.9 312.41 439.16 313.2 439.23 314.7"/>
    <polygon class="cls-1" points="420.17 285.82 420.75 284.61 422.08 284.39 421.1 283.47 421.31 282.14 420.13 282.78 418.93 282.18 419.17 283.5 418.23 284.45 419.56 284.63 420.17 285.82"/>
    <polygon class="cls-1" points="449.1 321.82 450.14 320.96 451.44 321.32 450.94 320.06 451.69 318.94 450.34 319.03 449.5 317.96 449.16 319.28 447.89 319.75 449.04 320.47 449.1 321.82"/>
    <polygon class="cls-1" points="447.34 296.4 448.56 295.12 449.71 296.46 449.66 294.7 451.42 294.83 450.14 293.62 451.48 292.47 449.71 292.52 449.85 290.76 448.63 292.04 447.48 290.7 447.53 292.46 445.77 292.33 447.05 293.54 445.71 294.69 447.48 294.65 447.34 296.4"/>
    <polygon class="cls-1" points="436.55 301.46 437.34 300.51 438.2 301.4 438.09 300.17 439.33 300.19 438.38 299.4 439.27 298.54 438.04 298.64 438.06 297.41 437.27 298.35 436.41 297.47 436.51 298.7 435.28 298.67 436.22 299.47 435.34 300.33 436.57 300.22 436.55 301.46"/>
    <polygon class="cls-1" points="426.84 280.01 427.68 279.02 428.58 279.95 428.47 278.66 429.76 278.68 428.77 277.84 429.7 276.94 428.41 277.06 428.44 275.76 427.6 276.75 426.7 275.82 426.81 277.11 425.52 277.09 426.51 277.92 425.58 278.82 426.87 278.71 426.84 280.01"/>
    <polygon class="cls-1" points="446.7 314.81 447.48 313.89 448.31 314.75 448.21 313.56 449.41 313.58 448.49 312.8 449.36 311.97 448.16 312.07 448.18 310.87 447.41 311.79 446.57 310.93 446.67 312.12 445.47 312.1 446.39 312.88 445.53 313.71 446.72 313.61 446.7 314.81"/>
  </g>
  <g>
    <polygon class="cls-1" points="456.8 185.52 456.58 185.21 452.7 188.09 452.72 188.19 455.32 207.91 438.06 225.96 416.93 218.6 423.28 202.51 423 191.01 422.96 190.96 418.95 186.31 418.67 186.55 422.63 191.15 422.9 202.49 416.44 218.83 416.62 218.89 438.17 226.4 438.25 226.31 455.71 208.04 455.7 207.95 453.1 188.26 456.8 185.52"/>
    <rect class="cls-1" x="415.96" y="213.16" width="40.29" height=".38" transform="translate(-41.11 124.05) rotate(-15.47)"/>
    <polygon class="cls-1" points="421.23 202.29 422.27 202.86 422.4 204.04 423.26 203.22 424.42 203.47 423.91 202.4 424.51 201.37 423.33 201.52 422.54 200.63 422.32 201.8 421.23 202.29"/>
    <polygon class="cls-1" points="420.19 190.42 421.53 191.33 421.54 192.95 422.82 191.96 424.36 192.45 423.82 190.92 424.76 189.61 423.14 189.66 422.18 188.36 421.73 189.91 420.19 190.42"/>
    <polygon class="cls-1" points="417.37 187.13 418.47 187.12 419.1 188.02 419.44 186.97 420.49 186.65 419.59 186.01 419.62 184.91 418.73 185.56 417.69 185.2 418.03 186.25 417.37 187.13"/>
    <polygon class="cls-1" points="451.03 189.6 452.55 189.27 453.68 190.33 453.83 188.78 455.19 188.04 453.77 187.41 453.48 185.89 452.45 187.05 450.91 186.85 451.69 188.19 451.03 189.6"/>
    <polygon class="cls-1" points="455.54 185.5 456.5 185.68 456.9 186.58 457.37 185.72 458.34 185.61 457.67 184.9 457.87 183.94 456.99 184.37 456.14 183.88 456.27 184.85 455.54 185.5"/>
    <polygon class="cls-1" points="414.15 218.29 415.41 219.2 415.38 220.75 416.64 219.83 418.11 220.34 417.62 218.86 418.56 217.62 417 217.63 416.11 216.35 415.64 217.84 414.15 218.29"/>
    <polygon class="cls-1" points="453.19 207.12 454.24 208.27 453.89 209.78 455.31 209.14 456.64 209.94 456.46 208.39 457.64 207.37 456.11 207.06 455.5 205.63 454.74 206.98 453.19 207.12"/>
    <polygon class="cls-1" points="435.26 227.39 437.1 227.18 437.11 229.03 438.27 227.59 439.58 228.88 439.38 227.05 441.23 227.03 439.79 225.87 441.08 224.56 439.24 224.76 439.23 222.91 438.07 224.35 436.76 223.06 436.96 224.9 435.11 224.91 436.55 226.07 435.26 227.39"/>
  </g>
</svg>